<svg width="161" height="43" viewBox="0 0 161 43" fill="none" xmlns="http://www.w3.org/2000/svg">
<g clip-path="url(#clip0_53_480)">
<path fill-rule="evenodd" clip-rule="evenodd" d="M128.029 33.1235H132.769V0H128.029V33.1235Z" fill="#EF5661"/>
<path fill-rule="evenodd" clip-rule="evenodd" d="M66.3916 35.4903H71.1331V9.46332H66.3916V35.4903ZM28.4609 35.4903H33.2012V9.46332H28.4609V35.4903Z" fill="#76787A"/>
<path fill-rule="evenodd" clip-rule="evenodd" d="M155.662 28.3144H144.97C143.557 28.3144 142.168 26.9251 142.168 25.5131V17.3156C142.168 15.9666 143.456 14.8128 144.97 14.8128L155.662 14.8115V28.3144ZM143.472 9.46835C139.788 9.46835 136.841 12.4473 136.841 16.1795V26.9969C136.841 30.7492 139.724 33.6362 143.472 33.6362H160.987V9.46835H143.472ZM118.143 28.3144H107.451C106.037 28.3144 104.649 26.9251 104.649 25.5131L104.648 17.3156C104.648 15.9666 105.935 14.8128 107.45 14.8128L118.143 14.8115V28.3144ZM105.953 9.46835C102.269 9.46835 99.322 12.4473 99.322 16.1795V26.9969C99.322 30.7492 102.205 33.6362 105.953 33.6362H123.467V9.46835H105.953ZM75.0681 33.6362H80.3914V0.0705261H75.0681V33.6362ZM97.3066 9.46835H90.3918L80.3914 21.5516L90.3918 33.6349L97.3066 33.6362L87.3074 21.5529L97.3066 9.46835Z" fill="#EF5661"/>
<path fill-rule="evenodd" clip-rule="evenodd" d="M42.881 25.513V17.3144C42.881 15.9653 44.1683 14.8115 45.6828 14.8115L56.3748 14.8103V28.3131H45.684C44.2705 28.3131 42.8823 26.9238 42.8823 25.5118L42.881 25.513ZM61.6993 9.47087H44.1847C40.4983 9.47087 37.554 12.4473 37.554 16.1757V26.9956C37.554 30.7479 40.4365 33.6349 44.1847 33.6349L61.6993 33.6362V9.46835V9.47087Z" fill="#76787A"/>
<path fill-rule="evenodd" clip-rule="evenodd" d="M56.3735 27.6493V34.8655C56.3735 36.2788 54.9852 37.6694 53.573 37.6694H42.8797L46.9056 43H55.0559C58.8067 43 61.6892 40.113 61.6892 36.3632V27.6481L56.3735 27.6493ZM28.1832 5.39861H33.5103V0.0705261H28.1832V5.39861ZM65.7113 5.39861H71.0384V0.0705261H65.7113V5.39861ZM18.8315 28.293H8.14452C6.62755 28.293 5.34279 27.1405 5.34279 25.7914V25.5194L5.34153 17.2904C5.34153 15.9414 6.62629 14.7889 8.142 14.7889L18.834 14.7901V28.293L18.8315 28.2917V28.293ZM18.8315 0.0705261V9.46836H6.64396C2.89569 9.46836 0.0131836 12.3553 0.0131836 16.1077V26.9276C0.0131836 30.6585 2.95753 33.6349 6.64396 33.6349L24.1573 33.6362V0.0705261H18.8302H18.8315Z" fill="#76787A"/>
</g>
<defs>
<clipPath id="clip0_53_480">
<rect width="161" height="43" fill="white"/>
</clipPath>
</defs>
</svg>
